#!OML:ASF F:\VICON\USERDATA\INSTALL\rory3\rory3.ASF
:FULLY-SPECIFIED
:DEGREES
88
root 0.3781104860842971 17.95405040742494 38.81805077740775 -2.6867468565261627 -2.4926019717359957 -6.270628745951049
lfemur -17.754335010712463 -0.28017782414899584 -13.075768669465276
ltibia 55.93610340543788
lfoot -7.95132357888182 -3.440760881058972
ltoes -10.628053679550508
rfemur -6.174539378598133 2.9182331929925707 34.400095233409445
rtibia 29.678778422803475
rfoot -10.366901714306458 -6.834490237261162
rtoes 9.146331811606448
lowerback 10.598532109876563 1.1829995424024584 4.168854828094478
upperback -0.013294204880996571 2.266363118252696 2.3163881753002906
thorax -6.220795415906509 0.9983761523121231 -1.2984526688789406
lowerneck -16.299269005283623 -3.0601268876498047 -1.7210743285624444
upperneck 22.368731816310742 -3.942113120634815 0.6137185607730057
head 9.841480278210286 -1.9256343970446976 0.06564188724046735
lclavicle 2.987644212908004e-16 5.506521405089764e-17
lhumerus -32.343306562367204 6.279082374115324 81.43572638390638
lradius 25.090230617146
lwrist 5.5246397577153115
lhand -29.671096993319374 18.31308831258858
lfingers 7.125020000000001
lthumb -3.052116595258371 48.5217880492868
rclavicle 2.943279519399654e-16 5.251616923211595e-17
rhumerus -28.80673403875401 -17.331914584707047 -79.55854140456438
rradius 28.121715784968046
rwrist 3.4658679744363328
rhand -17.89266346611317 19.994100605516678
rfingers 7.125020000000001
rthumb 8.357870025213805 -9.615044990866446
89
root 0.39730886653509984 17.900567883212577 39.706951384687756 -2.309620332081339 -2.8875610885031002 -6.4129608112498815
lfemur -20.182713251944215 -0.5156163398596709 -12.950946025847399
ltibia 52.10955354318753
lfoot -9.446677066328403 -0.9585047902623267
ltoes -10.194578094174098
rfemur -4.607174043864145 2.9892465628784755 34.68596919665089
rtibia 30.30495850808353
rfoot -10.308191728675684 -7.275841795503645
rtoes 8.428319540740533
lowerback 10.839974199490726 1.4143467979909894 4.409785167544556
upperback -0.034837514912445175 2.6565233539194617 2.159841103002397
thorax -6.266727724778428 1.1670080542396566 -1.7371189117542942
lowerneck -16.336920872600206 -3.0717728632817844 -1.6661587441065842
upperneck 22.23394476813231 -3.9871904509536638 0.6070176257028627
head 9.80486185488516 -1.9400864546276564 0.036875483880990934
lclavicle 2.9931020206354317e-16 5.545730101925795e-17
lhumerus -32.598275289069015 6.722670695434027 81.46067285239317
lradius 24.60467045004888
lwrist 5.998066902121126
lhand -29.808315833782704 18.6758193788123
lfingers 7.125020000000001
lthumb -3.18261909784821 48.88264516594318
rclavicle 2.94552777613907e-16 5.2537139191110905e-17
rhumerus -27.072032512774186 -15.26533696062419 -80.41128269585592
rradius 30.40909618952563
rwrist 1.2414461102660788
rhand -18.21539518172201 20.65221970380114
rfingers 7.125020000000001
rthumb 8.068578107740956 -9.22676134963096
90
root 0.4251367344604394 17.87292832976004 40.53181070497871 -1.5573884526795703 -3.010768315756193 -6.841779724509158
lfemur -21.881023695810615 -1.0395978374755717 -12.393792239718412
ltibia 46.56467351999674
lfoot -9.522005344143132 0.8415554991422596
ltoes -7.932135469410463
rfemur -3.133939616722005 2.774770766922593 35.02052892833247
rtibia 29.97597378002048
rfoot -9.642840328717321 -8.028894208100573
rtoes 7.763512550452087
lowerback 10.789046424799265 1.528666145995033 5.000104592730861
upperback -0.13923007706785678 2.850120957215074 2.1812150186614288
thorax -6.188938400692065 1.2360085948960517 -2.1494705555256166
lowerneck -16.427755670549605 -3.0971076917341183 -1.6190909409018706
upperneck 22.04781618415936 -4.0558640284533185 0.6797805013355146
head 9.751428176313839 -1.95833177747362 0.024254372540797514
lclavicle 3.0010928486264057e-16 5.60315542650289e-17
lhumerus -32.79893065127657 7.087403458390633 81.42774760813344
lradius 23.753592702357047
lwrist 7.28228607677906
lhand -30.741590506222767 16.755748413062612
lfingers 7.125020000000001
lthumb -3.9174358896423875 47.172441912305885
rclavicle 2.9530769838941994e-16 5.305376361030456e-17
rhumerus -25.447177774550575 -13.883358815697928 -80.85069025433141
rradius 32.07477545546528
rwrist -0.14416554071358734
rhand -18.349763943013507 21.83515360880308
rfingers 7.125020000000001
rthumb 7.94024521086976 -8.169860751877458
91
root 0.45994013683061186 17.85745115743703 41.10889705571145 -0.7309811582555594 -3.4312651945765413 -6.871553236689116
lfemur -21.99256007262384 -2.1467791803370755 -11.80980890678893
ltibia 38.81795693555463
lfoot -8.13660289180093 2.127236767383889
ltoes -7.8607477201045795
rfemur -1.8741920681771003 2.7369868483205213 34.54152657550519
rtibia 29.18164711867718
rfoot -8.873154279245492 -8.459652347371234
rtoes 7.091380128581936
lowerback 10.380402289982044 1.7246356045239297 5.014313048479943
upperback -0.25682666715268393 3.0829570083546196 2.0837887703252944
thorax -6.076170596599113 1.3517219465227146 -2.3943148906314873
lowerneck -16.634057812869468 -3.121886949357957 -1.527728079614404
upperneck 21.918199509437578 -4.123942930963772 0.7614557311308899
head 9.735250816902784 -1.9684459693832146 0.002766043271827695
lclavicle 2.9985027171809683e-16 5.584612683565896e-17
lhumerus -32.8637954926068 8.027698011423075 81.00266894753862
lradius 23.037846938049597
lwrist 6.542869147236974
lhand -30.42431027050922 16.481418258352836
lfingers 7.125020000000001
lthumb -3.4838036804822194 47.1973853382204
rclavicle 2.9426883695022046e-16 5.231177532533098e-17
rhumerus -24.3241792890269 -13.162350516359485 -81.00369368272776
rradius 33.634090441172084
rwrist -0.8579148268368848
rhand -18.67807603234499 23.140159375824027
rfingers 7.125020000000001
rthumb 7.594270569261846 -6.924693742635556
92
root 0.4912900395792039 17.81510054567759 41.5331946256599 -0.0400498390043551 -3.4593661032300886 -7.002347982482304
lfemur -21.834121402964108 -3.3205914234242115 -11.185945790988649
ltibia 31.43733826109335
lfoot -6.742016286377131 2.5190072731527833
ltoes -9.055237002624656
rfemur -0.6222372034042252 2.626770432844914 34.4551026038387
rtibia 28.32550249183501
rfoot -8.092807518043683 -8.945600826906908
rtoes 6.225198368390968
lowerback 10.110233119633193 1.8307742627715404 5.115848855954945
upperback -0.39071596697232924 3.2928820546530018 2.0895892181010747
thorax -6.01147660719189 1.4616786918313296 -2.4683960172463024
lowerneck -16.740981202864663 -3.1557857048938764 -1.496975918538158
upperneck 21.708531714066243 -4.217081000055153 0.8493409538943941
head 9.684532779764035 -1.9930050802150345 -0.015955710911065513
lclavicle 3.0018040258508925e-16 5.608333109941582e-17
lhumerus -33.30574162651758 8.878452117413453 80.74125419513229
lradius 22.447013267524124
lwrist 6.265687278910217
lhand -30.059272479840427 18.09863707050969
lfingers 7.125020000000001
lthumb -3.1725008070821032 48.55711689356742
rclavicle 2.9778996029111956e-16 5.500484961561077e-17
rhumerus -23.32289990794557 -12.844811628892131 -81.03644157319074
rradius 34.599548844419395
rwrist -1.2828507190002925
rhand -18.624377209427646 23.572888140657742
rfingers 7.125020000000001
rthumb 7.723837453957311 -6.299284024428102
93
root 0.5267291896842087 17.729276420667407 41.80996584079917 0.34713575718438694 -3.9105792901416234 -7.289291927363546
lfemur -21.433120401737938 -4.681855657514331 -10.130411854406805
ltibia 24.995606467265894
lfoot -8.425091525658434 3.0594768544865625
ltoes -9.040428025903463
rfemur 0.4442337258645228 2.932140197393038 34.41012318250918
rtibia 28.397636296549585
rfoot -7.27340738884863 -8.78647086281268
rtoes 4.24712796770247
lowerback 10.102761104156357 2.048504881042686 5.404203135735664
upperback -0.5157369068599292 3.6266014122120778 2.1457847812275834
thorax -6.0779242484767755 1.6017101254365596 -2.563802404652466
lowerneck -16.749202673950883 -3.217852302962261 -1.5367281436764706
upperneck 21.606546732241 -4.340879838244867 1.1108456518928256
head 9.661230958073295 -2.020564093731076 0.024097174714896807
lclavicle 3.0071201344179534e-16 5.646500990238555e-17
lhumerus -33.86028124999859 9.603282394227108 80.43000116213065
lradius 22.26012149199178
lwrist 7.237031251938989
lhand -30.08265700120419 18.172266604229065
lfingers 7.125020000000001
lthumb -3.2979833779679044 48.270912490545555
rclavicle 2.982448805202023e-16 5.563336286246179e-17
rhumerus -22.588660904494866 -12.777638710254742 -81.04180118319402
rradius 34.889696945789524
rwrist -1.3567748615280606
rhand -18.78107940870873 23.856712132804574
rfingers 7.125020000000001
rthumb 7.650919622756069 -5.792838581087583
